# xmcd
#
# Track frame offsets:
#	150
#	18348
#	41245
#	52290
#	75895
#	86233
#	128328
#	144900
#	163725
#	179698
#
# Disc length: 2691 seconds
#
# Revision: 3
# Processed by: cddbd v1.5.1PL2 Copyright (c) Steve Scherf et al.
# Submitted via: audiograbber 1.83.01
#
DISCID=800a810a
DTITLE=Robert Lucas - Layaway
DYEAR=1994
DGENRE=Blues
TTITLE0=If You Don't Want Me
TTITLE1=300 Pounds Of Joy
TTITLE2=Baby Please Don't Go
TTITLE3=Chiropractor Blues
TTITLE4=Never Trust Your Love Again
TTITLE5=Long Train Coming
TTITLE6=Cinderella Blue
TTITLE7=Trust Me
TTITLE8=High Priced Baby
TTITLE9=If You Don't Want Me
EXTD=
EXTT0=
EXTT1=
EXTT2=
EXTT3=
EXTT4=
EXTT5=
EXTT6=
EXTT7=
EXTT8=
EXTT9=
PLAYORDER=
